<svg width="49" height="40" viewBox="0 0 49 40" fill="none" xmlns="http://www.w3.org/2000/svg">
<path d="M11.6734 8.237C11.6734 6.304 13.2404 4.737 15.1734 4.737H41.864C44.2024 4.737 45.8831 6.98613 45.2205 9.22871L40.6606 24.6622C40.2211 26.1497 38.8551 27.1705 37.3041 27.1705H15.1734C13.2404 27.1705 11.6734 25.6035 11.6734 23.6705V8.237Z" stroke="black" stroke-width="3"/>
<mask id="path-2-inside-1_78_156" fill="white">
<path d="M11 20H43L42.0206 22H11V20Z"/>
</mask>
<path d="M11 20V17H8V20H11ZM43 20L45.6943 21.3194L47.8095 17H43V20ZM42.0206 22V25H43.8919L44.7149 23.3194L42.0206 22ZM11 22H8V25H11V22ZM11 23H43V17H11V23ZM40.3057 18.6806L39.3263 20.6806L44.7149 23.3194L45.6943 21.3194L40.3057 18.6806ZM42.0206 19H11V25H42.0206V19ZM14 22V20H8V22H14Z" fill="black" mask="url(#path-2-inside-1_78_156)"/>
<mask id="path-4-inside-2_78_156" fill="white">
<path d="M11 15H45L43.9967 17H11V15Z"/>
</mask>
<path d="M11 15V12H8V15H11ZM45 15L47.6815 16.3452L49.8612 12H45V15ZM43.9967 17V20H45.8481L46.6782 18.3452L43.9967 17ZM11 17H8V20H11V17ZM11 18H45V12H11V18ZM42.3185 13.6548L41.3152 15.6548L46.6782 18.3452L47.6815 16.3452L42.3185 13.6548ZM43.9967 14H11V20H43.9967V14ZM14 17V15H8V17H14Z" fill="black" mask="url(#path-4-inside-2_78_156)"/>
<mask id="path-6-inside-3_78_156" fill="white">
<path d="M11 10H46L44.9672 12H11V10Z"/>
</mask>
<path d="M11 10V7H8V10H11ZM46 10L48.6656 11.3765L50.9256 7H46V10ZM44.9672 12V15H46.7944L47.6328 13.3765L44.9672 12ZM11 12H8V15H11V12ZM11 13H46V7H11V13ZM43.3344 8.62351L42.3016 10.6235L47.6328 13.3765L48.6656 11.3765L43.3344 8.62351ZM44.9672 9H11V15H44.9672V9ZM14 12V10H8V12H14Z" fill="black" mask="url(#path-6-inside-3_78_156)"/>
<rect x="7.51444" y="0.578035" width="1.15607" height="31.4451" rx="0.578035" stroke="black" stroke-width="1.15607"/>
<rect x="7.51444" y="32.0231" width="1.15607" height="38.1503" rx="0.578034" transform="rotate(-90 7.51444 32.0231)" stroke="black" stroke-width="1.15607"/>
<circle cx="13.8728" cy="36.3006" r="2.19942" stroke="black" stroke-width="3"/>
<circle cx="39.5376" cy="36.3006" r="2.19942" stroke="black" stroke-width="3"/>
<rect x="0.578035" y="0.578035" width="8.09249" height="1.15607" rx="0.578035" stroke="black" stroke-width="1.15607"/>
</svg>
