<svg width="60" height="50" viewBox="0 0 60 50" fill="none" xmlns="http://www.w3.org/2000/svg">
<g clip-path="url(#clip0_41_399)">
<path d="M23.5627 9.33936H36.4373V32.477H23.5627V9.33936Z" fill="#FF5F00"/>
<path d="M24.3801 20.9098C24.3777 18.6812 24.8825 16.4812 25.8562 14.4765C26.8298 12.4718 28.2469 10.715 30 9.33895C27.8294 7.63305 25.2225 6.57224 22.4775 6.27779C19.7325 5.98333 16.96 6.4671 14.4769 7.6738C11.9938 8.8805 9.90031 10.7614 8.43565 13.1017C6.97099 15.4419 6.19427 18.147 6.19427 20.9078C6.19427 23.6685 6.97099 26.3736 8.43565 28.7138C9.90031 31.0541 11.9938 32.935 14.4769 34.1417C16.96 35.3484 19.7325 35.8322 22.4775 35.5377C25.2225 35.2433 27.8294 34.1825 30 32.4766C28.2474 31.101 26.8307 29.3448 25.8571 27.3408C24.8834 25.3369 24.3784 23.1377 24.3801 20.9098V20.9098Z" fill="#EB001B"/>
<path d="M53.8079 20.91C53.8078 23.671 53.0309 26.3763 51.566 28.7166C50.1011 31.0569 48.0073 32.9378 45.5239 34.1443C43.0405 35.3508 40.2677 35.8343 37.5225 35.5394C34.7773 35.2445 32.1705 34.1832 30 32.4768C31.7519 31.1 33.1682 29.3433 34.1421 27.3392C35.116 25.3352 35.6221 23.1361 35.6221 20.908C35.6221 18.6798 35.116 16.4808 34.1421 14.4767C33.1682 12.4727 31.7519 10.716 30 9.33919C32.1705 7.63275 34.7773 6.57143 37.5225 6.27655C40.2677 5.98167 43.0405 6.46513 45.5239 7.67165C48.0073 8.87818 50.1011 10.7591 51.566 13.0994C53.0309 15.4397 53.8078 18.145 53.8079 20.9059V20.91ZM52.4019 30.0245V29.5504H52.594V29.4523H52.1076V29.5504H52.3161V30.0245H52.4019ZM53.3461 30.0245V29.4523H53.1989L53.0273 29.861L52.8556 29.4523H52.7248V30.0245H52.8311V29.5953L52.9905 29.9672H53.1008L53.2602 29.5953V30.0286L53.3461 30.0245Z" fill="#F79E1B"/>
</g>
<defs>
<clipPath id="clip0_41_399">
<rect width="60" height="49.2139" fill="white"/>
</clipPath>
</defs>
</svg>
