<svg width="60" height="17" viewBox="0 0 60 17" fill="none" xmlns="http://www.w3.org/2000/svg">
<g clip-path="url(#clip0_41_411)">
<path d="M42.7364 7.98486V16.815H48.1173V11.848H53.5326C56.361 11.848 58.7755 10.2441 59.7068 7.98486H42.7364Z" fill="#006848"/>
<path d="M42.495 0C42.5122 0.448405 42.5812 0.89681 42.6847 1.31072C42.7019 1.39695 42.7364 1.50043 42.7537 1.58666C42.7709 1.62116 42.7709 1.65565 42.7882 1.70739C43.7539 4.75999 46.5996 6.96752 49.9626 6.96752H59.8965C59.9655 6.62259 60 6.27767 60 5.91549C60 4.19086 59.2584 2.63869 58.0684 1.55217C57.0164 0.586376 55.6194 0 54.0673 0H42.495V0Z" fill="url(#paint0_linear_41_411)"/>
<path d="M33.1992 1.77637L29.4395 9.93389H29.0601V0H23.7137V16.8152H28.2495C29.4395 16.8152 30.526 16.1253 31.0262 15.0388L34.7859 6.88129H35.1653V16.8152H40.5116V0H35.9759C34.7859 0 33.6993 0.689854 33.1992 1.77637ZM8.27824 2.20753L10.5203 9.93389H10.8997L13.1245 2.20753C13.5039 0.89681 14.6939 0 16.0563 0H21.4027V16.8152H16.0563V6.88129H15.6769L12.6071 16.8152H8.79563L5.72578 6.88129H5.34636V16.8152H0V0H5.34636C6.70882 0 7.89882 0.89681 8.27824 2.20753Z" fill="#006848"/>
</g>
<defs>
<linearGradient id="paint0_linear_41_411" x1="42.492" y1="3.48583" x2="59.9947" y2="3.48583" gradientUnits="userSpaceOnUse">
<stop stop-color="#02AFFF"/>
<stop offset="1" stop-color="#1F5BDE"/>
</linearGradient>
<clipPath id="clip0_41_411">
<rect width="60" height="16.8152" fill="white"/>
</clipPath>
</defs>
</svg>
