<svg width="30" height="29" viewBox="0 0 30 29" fill="none" xmlns="http://www.w3.org/2000/svg">
<path d="M14.5245 2.31763C14.6741 1.85697 15.3259 1.85697 15.4755 2.31763L17.6147 8.90122C18.0832 10.3433 19.4271 11.3197 20.9434 11.3197H27.8658C28.3501 11.3197 28.5515 11.9395 28.1597 12.2242L22.5593 16.2931C21.3326 17.1843 20.8193 18.7641 21.2879 20.2062L23.427 26.7898C23.5767 27.2504 23.0494 27.6335 22.6576 27.3488L17.0572 23.2799C15.8305 22.3886 14.1695 22.3886 12.9428 23.2799L7.34241 27.3488L8.22409 28.5623L7.34241 27.3488C6.95056 27.6335 6.42331 27.2504 6.57299 26.7898L8.71213 20.2062C9.18069 18.7641 8.66739 17.1843 7.44068 16.2931L1.84034 12.2242C1.44849 11.9395 1.64987 11.3197 2.13424 11.3197H9.05664C10.5729 11.3197 11.9168 10.3433 12.3853 8.90122L14.5245 2.31763Z" stroke="black" stroke-width="3"/>
</svg>
