<svg width="100" height="100" viewBox="0 0 100 100" fill="none" xmlns="http://www.w3.org/2000/svg">
<path d="M64.565 72.626L64.567 72.6262L64.565 72.6258C64.565 72.6258 64.565 72.6258 64.565 72.6258C64.567 72.6261 64.567 72.6261 64.567 72.6261L64.5671 72.6258L64.5674 72.6243L64.5685 72.6186L64.5728 72.596L64.5901 72.5068L64.6573 72.1585L64.9124 70.8361L65.8234 66.1136L68.5926 51.7576C69.6012 46.5288 70.6118 41.2885 71.3732 37.3314C71.4406 36.9808 71.5061 36.6403 71.5696 36.3107C71.864 34.7803 72.1132 33.4857 72.2983 32.5187L71.8072 32.4246L72.2983 32.5186C72.4108 31.9308 72.4996 31.4637 72.5616 31.137C72.5757 31.0624 72.5894 30.9917 72.6016 30.9285C72.6148 30.8598 72.6264 30.7998 72.6351 30.7529M64.565 72.626L72.6715 30.5449C72.664 30.5995 72.6587 30.6326 72.652 30.6671L72.644 30.7069C72.6416 30.7189 72.6388 30.7331 72.6351 30.7529M64.565 72.626C64.5635 72.6336 64.5616 72.6431 64.5591 72.6545C64.5537 72.6799 64.5458 72.7145 64.5348 72.7569C64.5128 72.8415 64.4785 72.9583 64.4274 73.0958C64.3257 73.3691 64.1538 73.7337 63.8721 74.0914C63.299 74.8191 62.2436 75.5001 60.7313 75.5001C59.9198 75.5001 59.2733 75.3019 58.8222 75.0886C58.8222 75.0886 58.8222 75.0886 58.8222 75.0885L59.0359 74.6366C58.6432 74.4509 58.3876 74.2215 58.3876 74.2215L64.565 72.626ZM72.6351 30.7529C72.6351 30.7529 72.6351 30.753 72.6351 30.753L72.1436 30.6614L72.6351 30.7529ZM21.7348 52.8373L21.875 52.3574C21.7348 52.8373 21.7347 52.8373 21.7347 52.8373L21.7344 52.8372L21.734 52.8371L21.7329 52.8368L21.7301 52.8359L21.722 52.8335L21.696 52.8253C21.6745 52.8184 21.6446 52.8085 21.6077 52.7955C21.5339 52.7694 21.4312 52.7305 21.309 52.6775C21.0661 52.5719 20.7392 52.4069 20.4086 52.1693C19.7485 51.6949 18.9445 50.7959 18.9445 49.4819C18.9445 48.2021 19.8426 47.3898 20.4749 46.9689C21.0505 46.5856 21.5758 46.3969 21.7017 46.3543L67.3005 27.894L21.7348 52.8373ZM21.7348 52.8373L21.7606 52.8448M21.7348 52.8373L21.7606 52.8448M21.7606 52.8448L21.7837 52.849M21.7606 52.8448L21.7837 52.849M21.7837 52.849L32.0661 55.6388C32.3831 56.5254 33.4415 59.4849 34.5933 62.7038C35.2522 64.5452 35.9148 66.3926 36.4313 67.8325L36.495 68.0101L36.5175 68.073C36.7701 68.7772 36.9832 69.3713 37.1381 69.8012C37.2175 70.0215 37.2819 70.2007 37.3285 70.3287L37.7984 70.1579L37.3285 70.3287C37.3405 70.3617 37.3506 70.3904 37.3601 70.4173C37.3807 70.4758 37.3983 70.5257 37.4251 70.5913L21.7837 52.849ZM38.9553 72.5383L38.9542 72.5378L38.9517 72.5368L38.9512 72.5366C38.9458 72.5345 38.9382 72.5313 38.9292 72.5272L38.9421 72.5331L38.9448 72.5342C38.9396 72.5322 38.9332 72.5296 38.9258 72.5263C38.9212 72.5243 38.9161 72.522 38.9107 72.5195L38.8917 72.5104L38.8912 72.5102L38.8899 72.5098C38.869 72.5017 38.8325 72.4872 38.7908 72.4648L39.0272 72.0242L38.7908 72.4648C38.6211 72.3737 38.4558 72.2472 38.3005 72.083L38.6637 71.7394L38.3005 72.083C37.9992 71.7644 37.7177 71.3069 37.4252 70.5915L38.9684 72.5442L38.9681 72.5441L38.9586 72.5399L38.9531 72.5375L38.9524 72.5372C38.9525 72.5372 38.9527 72.5373 38.9528 72.5373C38.9537 72.5377 38.9546 72.538 38.9553 72.5383ZM38.9553 72.5383C38.958 72.5392 38.9597 72.5399 38.9602 72.54L38.9598 72.5399L38.9553 72.5383ZM70.3117 30.1709C70.3258 30.0558 70.3333 29.9439 70.3333 29.8612C70.3333 29.8071 70.3277 29.7822 70.3254 29.7745C70.3228 29.7715 70.316 29.7641 70.3015 29.7519L70.6245 29.3702L70.3015 29.7519C70.2731 29.7279 70.1669 29.6667 69.9653 29.6667C69.6535 29.6667 69.2353 29.7626 68.8646 29.8746C68.6858 29.9286 68.5294 29.9828 68.418 30.0233C68.3624 30.0436 68.3184 30.0603 68.2888 30.0718L68.2556 30.0847L68.252 30.0862C68.2445 30.0894 68.237 30.0926 68.2294 30.0958L68.2269 30.0968L22.5835 48.5755L22.5787 48.5774L22.5787 48.5774C22.5551 48.5867 22.5312 48.5952 22.507 48.603L22.499 48.6058C22.4899 48.609 22.4753 48.6143 22.4561 48.6217C22.4174 48.6364 22.3605 48.6592 22.2917 48.6897C22.1526 48.7514 21.9727 48.8415 21.7995 48.9568C21.4134 49.2139 21.3333 49.4069 21.3333 49.4819C21.3333 49.7954 21.4848 50.0026 21.8033 50.2315L21.8033 50.2315C22.1047 50.4482 22.3981 50.5409 22.4021 50.5422C22.4021 50.5422 22.4021 50.5422 22.4021 50.5422L22.4279 50.5502L32.8099 53.367L60.8139 36.0347C61.204 35.7572 61.6679 35.6092 62.1349 35.6112M70.3117 30.1709L62.1338 36.1112M70.3117 30.1709L70.307 30.1957C70.3037 30.2136 70.3008 30.2296 70.2979 30.246C70.2941 30.2673 70.2901 30.2894 70.2849 30.3174L70.2848 30.3176C70.2812 30.3373 70.2772 30.3588 70.2729 30.382C70.2577 30.4638 70.2384 30.5673 70.2146 30.693C70.1531 31.0173 70.064 31.483 69.9516 32.0702L69.8721 32.4857C69.6546 33.6222 69.3671 35.1244 69.0294 36.8793C68.2682 40.8357 67.2576 46.0763 66.249 51.3051C65.2404 56.5338 64.2333 61.7509 63.4784 65.6609L62.5664 70.3834L62.311 71.7058L62.2438 72.0541L62.2265 72.1434L62.2232 72.1606L62.2228 72.1621L62.219 72.1778L62.2174 72.1874C62.2172 72.1879 62.2171 72.1885 62.2169 72.1891C62.2163 72.1918 62.2153 72.196 62.2138 72.2015C62.209 72.2191 62.1998 72.2498 62.1839 72.2901C62.1521 72.3708 62.0948 72.4874 61.996 72.6128L61.9959 72.6129C61.8918 72.7451 61.7744 72.8598 61.6006 72.9468C61.4243 73.035 61.1566 73.1112 60.7313 73.1112C60.3055 73.1112 60.017 73.0132 59.8437 72.9313C59.7461 72.8851 59.6951 72.8533 59.675 72.8397C59.6744 72.8393 59.6739 72.8389 59.6733 72.8386C59.6671 72.8324 59.6609 72.8263 59.6546 72.8203L59.644 72.8103L59.6329 72.8009L43.2749 58.9573L63.5621 39.6632C64.1099 39.2112 64.3889 38.5489 64.3889 37.8961L64.3889 37.8934L64.3889 37.8904C64.3861 37.4174 64.2367 36.932 63.9283 36.5222M70.3117 30.1709L63.8889 37.8961V37.8934C63.8867 37.5221 63.7692 37.142 63.5281 36.8219M62.1349 35.6112C62.1353 35.6112 62.1357 35.6112 62.1362 35.6112L62.1338 36.1112M62.1349 35.6112H62.1338V36.1112M62.1349 35.6112H62.1365H62.1394C62.8239 35.6152 63.4964 35.9423 63.9283 36.5222M62.1338 36.1112H62.1365C62.666 36.1143 63.1908 36.3685 63.5281 36.8219M63.9283 36.5222C63.9281 36.5218 63.9278 36.5214 63.9275 36.5211L63.5281 36.8219M63.9283 36.5222C63.9287 36.5226 63.929 36.523 63.9293 36.5235L63.5281 36.8219M70.7909 30.3296C70.7864 30.3543 70.7813 30.3827 70.7764 30.4091C70.7728 30.4285 70.7688 30.4498 70.7645 30.4728C70.7507 30.5475 70.7333 30.6411 70.7121 30.7532C70.7043 30.7517 70.6964 30.75 70.6884 30.7481C70.4406 30.6893 70.355 30.4843 70.3431 30.4558L70.3427 30.4549C70.3191 30.3986 70.3116 30.3511 70.3093 30.3356C70.3086 30.3309 70.308 30.3262 70.3075 30.3218C70.3074 30.3217 70.3074 30.3217 70.3074 30.3216C70.3038 30.2917 70.3038 30.2689 70.3038 30.2625V30.262C70.3038 30.2504 70.3043 30.2412 70.3045 30.2365C70.3049 30.2288 70.3054 30.2226 70.3057 30.2191L70.7986 30.2869C70.7965 30.2985 70.7938 30.3133 70.7909 30.3296ZM40.6621 58.1455C40.5828 58.2213 40.5148 58.3071 40.4596 58.4003H40.372L40.3026 58.8186L38.8585 67.5305C38.8278 67.4451 38.7965 67.3579 38.7646 67.2689L38.7411 67.2032C38.3746 66.1816 37.9287 64.9347 37.4592 63.6222C37.2565 63.0553 37.0493 62.4761 36.8423 61.8976C36.0171 59.5912 35.2668 57.495 34.7935 56.1726C34.6439 55.7547 34.522 55.414 34.4341 55.1685L61.2229 38.5908L40.6629 58.1447L40.6621 58.1455ZM62.1284 37.5001C62.2341 37.5005 62.3343 37.5422 62.4159 37.652L62.1284 37.5001ZM40.9849 69.3194L42.3171 61.278L46.1639 64.5346L40.9849 69.3194Z" fill="black" stroke="black"/>
<circle cx="50" cy="50" r="48" stroke="black" stroke-width="4"/>
</svg>
