<svg width="100" height="100" viewBox="0 0 100 100" fill="none" xmlns="http://www.w3.org/2000/svg">
<circle cx="50" cy="50" r="48" fill="#36ACE8" stroke="#36ACE8" stroke-width="4"/>
<path d="M64.565 72.626L64.567 72.6262L64.565 72.6258C64.565 72.6258 64.565 72.6258 64.565 72.6258C64.567 72.6261 64.567 72.6261 64.567 72.6261L64.5671 72.6258L64.5674 72.6243L64.5685 72.6186L64.5728 72.596L64.5901 72.5068L64.6573 72.1585L64.9124 70.8361L65.8234 66.1136L68.5926 51.7576C69.6012 46.5288 70.6118 41.2885 71.3732 37.3314C71.4406 36.9808 71.5061 36.6403 71.5696 36.3107C71.864 34.7803 72.1132 33.4857 72.2983 32.5187L71.8072 32.4246L72.2983 32.5186C72.4108 31.9308 72.4996 31.4637 72.5616 31.137C72.5757 31.0624 72.5894 30.9917 72.6016 30.9285C72.6148 30.8598 72.6264 30.7998 72.6351 30.7529M64.565 72.626L72.6715 30.5449C72.664 30.5995 72.6587 30.6326 72.652 30.6671L72.644 30.7069C72.6416 30.7189 72.6388 30.7331 72.6351 30.7529M64.565 72.626C64.5635 72.6336 64.5616 72.6431 64.5591 72.6545C64.5537 72.6799 64.5458 72.7145 64.5348 72.7569C64.5128 72.8415 64.4785 72.9583 64.4274 73.0958C64.3257 73.3691 64.1538 73.7337 63.8721 74.0914C63.299 74.8191 62.2436 75.5001 60.7313 75.5001C59.9198 75.5001 59.2733 75.3019 58.8222 75.0886C58.8222 75.0886 58.8222 75.0886 58.8222 75.0885L59.0359 74.6366C58.6432 74.4509 58.3876 74.2215 58.3876 74.2215L64.565 72.626ZM72.6351 30.7529C72.6351 30.7529 72.6351 30.753 72.6351 30.753L72.1436 30.6614L72.6351 30.7529ZM21.7348 52.8373L21.875 52.3574C21.7348 52.8373 21.7347 52.8373 21.7347 52.8373L21.7344 52.8372L21.734 52.8371L21.7329 52.8368L21.7301 52.8359L21.722 52.8335L21.696 52.8253C21.6745 52.8184 21.6446 52.8085 21.6077 52.7955C21.5339 52.7694 21.4312 52.7305 21.309 52.6775C21.0661 52.5719 20.7392 52.4069 20.4086 52.1693C19.7485 51.6949 18.9445 50.7959 18.9445 49.4819C18.9445 48.2021 19.8426 47.3898 20.4749 46.9689C21.0505 46.5856 21.5758 46.3969 21.7017 46.3543L67.3005 27.894L21.7348 52.8373ZM21.7348 52.8373L21.7606 52.8448M21.7348 52.8373L21.7606 52.8448M21.7606 52.8448L21.7837 52.849M21.7606 52.8448L21.7837 52.849M21.7837 52.849L32.0661 55.6388C32.3831 56.5254 33.4415 59.4849 34.5933 62.7038C35.2522 64.5452 35.9148 66.3926 36.4313 67.8325L36.495 68.0101L36.5175 68.073C36.7701 68.7772 36.9832 69.3713 37.1381 69.8012C37.2175 70.0215 37.2819 70.2007 37.3285 70.3287L37.7984 70.1579L37.3285 70.3287C37.3405 70.3617 37.3506 70.3904 37.3601 70.4173C37.3807 70.4758 37.3983 70.5257 37.4251 70.5913L21.7837 52.849ZM38.9553 72.5383L38.9542 72.5378L38.9517 72.5368L38.9512 72.5366C38.9458 72.5345 38.9382 72.5313 38.9292 72.5272L38.9421 72.5331L38.9448 72.5342C38.9396 72.5322 38.9332 72.5296 38.9258 72.5263C38.9212 72.5243 38.9161 72.522 38.9107 72.5195L38.8917 72.5104L38.8912 72.5102L38.8899 72.5098C38.869 72.5017 38.8325 72.4872 38.7908 72.4648L39.0272 72.0242L38.7908 72.4648C38.6211 72.3737 38.4558 72.2472 38.3005 72.083L38.6637 71.7394L38.3005 72.083C37.9992 71.7644 37.7177 71.3069 37.4252 70.5915L38.9684 72.5442L38.9681 72.5441L38.9586 72.5399L38.9531 72.5375L38.9524 72.5372C38.9525 72.5372 38.9527 72.5373 38.9528 72.5373C38.9537 72.5377 38.9546 72.538 38.9553 72.5383ZM38.9553 72.5383C38.958 72.5392 38.9597 72.5399 38.9602 72.54L38.9598 72.5399L38.9553 72.5383ZM40.6621 58.1455C40.5828 58.2213 40.5148 58.3071 40.4596 58.4003H40.372L40.3026 58.8186L38.8585 67.5305C38.8278 67.4451 38.7965 67.3579 38.7646 67.2689L38.7411 67.2032C38.3746 66.1816 37.9287 64.9347 37.4592 63.6222C37.2565 63.0553 37.0493 62.4761 36.8423 61.8976C36.0171 59.5912 35.2668 57.495 34.7935 56.1726C34.6439 55.7547 34.522 55.414 34.4341 55.1685L61.2229 38.5908L40.6629 58.1447L40.6621 58.1455ZM40.9849 69.3194L42.3171 61.278L46.1639 64.5346L40.9849 69.3194Z" fill="white" stroke="white"/>
</svg>
