<svg width="100" height="100" viewBox="0 0 100 100" fill="none" xmlns="http://www.w3.org/2000/svg">
<circle cx="50" cy="50" r="48" fill="black" stroke="black" stroke-width="4"/>
<path d="M46.1953 18C45.6656 18.0001 45.1575 18.2102 44.7826 18.5845C44.4076 18.9587 44.1964 19.4664 44.1953 19.9961C44.1953 19.9961 44.1734 29.7465 44.1524 39.5195C44.1418 44.406 44.129 49.2976 44.1211 52.9805C44.1132 56.6633 44.1094 58.9937 44.1094 59.1875C44.1094 62.818 40.8122 65.7851 37.0547 65.7851C33.3271 65.7851 30.3516 62.8057 30.3516 59.0781C30.3516 55.3505 33.3271 52.375 37.0547 52.375C37.181 52.375 37.4355 52.4165 37.8711 52.4687C38.1521 52.5024 38.437 52.4761 38.707 52.3915C38.977 52.307 39.226 52.1661 39.4376 51.9782C39.6491 51.7902 39.8184 51.5596 39.9342 51.3014C40.05 51.0432 40.1097 50.7634 40.1094 50.4805V42.0781C40.1094 41.5693 39.9154 41.0797 39.5671 40.7089C39.2187 40.338 38.7422 40.1139 38.2344 40.082C37.9227 40.0624 37.5306 40.0234 37.0547 40.0234C26.5556 40.0234 18 48.5791 18 59.0781C18 69.5772 26.5556 78.1328 37.0547 78.1328C47.5535 78.1328 56.1094 69.5772 56.1094 59.0781V40.9805C59.0186 43.3073 62.6445 44.7812 66.6485 44.7812C67.1946 44.7812 67.714 44.7489 68.211 44.7031C68.7076 44.6573 69.1692 44.4276 69.5053 44.059C69.8413 43.6905 70.0275 43.2097 70.0274 42.7109V33.3711C70.0277 32.8655 69.8365 32.3785 69.4922 32.0081C69.148 31.6378 68.6762 31.4116 68.1719 31.375C61.8826 30.9238 56.8691 26.0244 56.2149 19.793C56.1637 19.3012 55.9321 18.8459 55.565 18.5148C55.1978 18.1837 54.721 18.0003 54.2266 18H46.1953ZM48.1914 22H52.7539C54.2075 28.5974 59.3629 33.6288 66.0274 34.8906V40.6211C61.7496 40.4039 57.9924 38.2699 55.7813 34.9062C55.5448 34.5463 55.1984 34.2723 54.7936 34.125C54.3889 33.9777 53.9474 33.9649 53.5349 34.0887C53.1223 34.2125 52.7607 34.4661 52.5039 34.8119C52.2471 35.1577 52.1087 35.5771 52.1094 36.0078V59.0781C52.1094 67.4151 45.3919 74.1328 37.0547 74.1328C28.7177 74.1328 22 67.4151 22 59.0781C22 51.0771 28.2416 44.7264 36.1094 44.2148V48.5664C30.6822 49.0714 26.3516 53.5245 26.3516 59.0781C26.3516 64.9665 31.1663 69.7851 37.0547 69.7851C42.9132 69.7851 48.1094 65.173 48.1094 59.1875C48.1094 59.2853 48.1131 56.6711 48.1211 52.9883C48.1289 49.3054 48.1419 44.4138 48.1524 39.5273C48.1712 30.7535 48.1878 23.6984 48.1914 22Z" fill="#69CAD0"/>
<path d="M74.0274 46.7109V37.3711C74.0277 36.8655 73.8365 36.3785 73.4922 36.0081C73.148 35.6378 72.6762 35.4116 72.1719 35.375M74.0274 46.7109L60.2149 23.793C60.8691 30.0244 65.8826 34.9238 72.1719 35.375M74.0274 46.7109C74.0275 47.2097 73.8413 47.6905 73.5053 48.059C73.1692 48.4276 72.7076 48.6573 72.211 48.7031C71.714 48.7489 71.1946 48.7812 70.6485 48.7812C66.8707 48.7812 63.4296 47.4692 60.6094 45.3666M74.0274 46.7109L60.6094 45.3666M72.1719 35.375L72.1361 35.8737C65.6035 35.405 60.397 30.316 59.7176 23.8452L59.7176 23.8448C59.6792 23.4759 59.5055 23.1344 59.2301 22.8861L59.565 22.5148L59.2301 22.8861C58.9548 22.6378 58.5973 22.5003 58.2266 22.5L72.1719 35.375ZM60.6094 45.3666V44.9805H60.1094L59.7971 45.3709C59.9003 45.4535 60.0044 45.535 60.1094 45.6155V63.0781C60.1094 73.5772 51.5535 82.1328 41.0547 82.1328C30.5556 82.1328 22 73.5772 22 63.0781C22 52.5791 30.5556 44.0234 41.0547 44.0234C41.4208 44.0234 41.7373 44.0465 42.0058 44.0661C42.0863 44.0719 42.1625 44.0775 42.2344 44.082C42.7422 44.1139 43.2187 44.338 43.5671 44.7089L60.6094 45.3666ZM48.1953 23.9961L48.6953 23.9972V23.9971C48.6962 23.5998 48.8545 23.219 49.1358 22.9384C49.417 22.6577 49.798 22.5001 50.1953 22.5C50.1954 22.5 50.1954 22.5 50.1954 22.5H58.2264L48.1953 23.9961ZM52.1914 25.5H51.6925L51.6914 25.9989C51.6904 26.5011 51.6881 27.4721 51.6851 28.8177C51.6778 32.0213 51.6656 37.3481 51.6524 43.5263C51.6469 46.0625 51.6408 48.6012 51.6351 50.9715C51.6298 53.1665 51.6249 55.2171 51.6211 56.9872C51.6171 58.8287 51.6142 60.403 51.6123 61.5048L51.6101 62.7772L51.6096 63.0994L51.6094 63.1735L51.6094 63.1856L51.6095 63.1804C51.6097 63.1735 51.8238 62.9675 52.1098 62.957C52.2628 62.9514 52.4364 63.0017 52.6089 63.1684L52.6094 63.1858C52.6094 63.1884 52.6094 63.1906 52.6094 63.1875H52.1094H51.6094C51.6094 68.8662 46.6687 73.2851 41.0547 73.2851C35.4427 73.2851 30.8516 68.6906 30.8516 63.0781C30.8516 57.7972 34.9709 53.5467 40.1557 53.0642L40.6094 53.022V52.5664V48.2148V47.6813L40.077 47.7159C31.9569 48.2438 25.5 54.8029 25.5 63.0781C25.5 71.6912 32.4416 78.6328 41.0547 78.6328C49.6681 78.6328 56.6094 71.6912 56.6094 63.0781V40.0078V40.007C56.6089 39.684 56.7127 39.3694 56.9053 39.11C57.0979 38.8507 57.3691 38.6605 57.6785 38.5676C57.988 38.4748 58.3191 38.4843 58.6227 38.5948C58.9262 38.7053 59.186 38.9108 59.3634 39.1808L59.3635 39.1809C61.6658 42.6834 65.572 44.8955 70.002 45.1204L70.5274 45.1471V44.6211V38.8906V38.4764L70.1204 38.3993C63.6533 37.1749 58.6529 32.295 57.2422 25.8924L57.1558 25.5H56.7539H52.1914Z" fill="#ED1E53" stroke="#ED1E53"/>
<path d="M48.1953 20C47.6656 20.0001 47.1575 20.2102 46.7826 20.5845C46.4076 20.9587 46.1964 21.4664 46.1953 21.9961C46.1953 21.9961 46.1734 31.7465 46.1524 41.5195C46.1418 46.406 46.129 51.2976 46.1211 54.9805C46.1132 58.6633 46.1094 60.9937 46.1094 61.1875C46.1094 64.818 42.8122 67.7851 39.0547 67.7851C35.3271 67.7851 32.3516 64.8057 32.3516 61.0781C32.3516 57.3505 35.3271 54.375 39.0547 54.375C39.181 54.375 39.4355 54.4165 39.8711 54.4687C40.1521 54.5024 40.437 54.4761 40.707 54.3915C40.977 54.307 41.226 54.1661 41.4376 53.9782C41.6491 53.7902 41.8184 53.5596 41.9342 53.3014C42.05 53.0432 42.1097 52.7634 42.1094 52.4805V44.0781C42.1094 43.5693 41.9154 43.0797 41.5671 42.7089C41.2187 42.338 40.7422 42.1139 40.2344 42.082C39.9227 42.0624 39.5306 42.0234 39.0547 42.0234C28.5556 42.0234 20 50.5791 20 61.0781C20 71.5772 28.5556 80.1328 39.0547 80.1328C49.5535 80.1328 58.1094 71.5772 58.1094 61.0781V42.9805C61.0186 45.3073 64.6445 46.7812 68.6485 46.7812C69.1946 46.7812 69.714 46.7489 70.211 46.7031C70.7076 46.6573 71.1692 46.4276 71.5053 46.059C71.8413 45.6905 72.0275 45.2097 72.0274 44.7109V35.3711C72.0277 34.8655 71.8365 34.3785 71.4922 34.0081C71.148 33.6378 70.6762 33.4116 70.1719 33.375C63.8826 32.9238 58.8691 28.0244 58.2149 21.793C58.1637 21.3012 57.9321 20.8459 57.565 20.5148C57.1978 20.1837 56.721 20.0003 56.2266 20H48.1953Z" fill="white"/>
</svg>
