<svg width="100" height="100" viewBox="0 0 100 100" fill="none" xmlns="http://www.w3.org/2000/svg">
<path d="M52.086 20C51.5562 20.0001 51.0481 20.2102 50.6732 20.5845C50.2982 20.9587 50.0871 21.4664 50.086 21.9961C50.086 21.9961 50.064 31.7465 50.043 41.5195C50.0324 46.406 50.0196 51.2976 50.0117 54.9805C50.0039 58.6633 50 60.9937 50 61.1875C50 64.818 46.7029 67.7851 42.9453 67.7851C39.2178 67.7851 36.2422 64.8057 36.2422 61.0781C36.2422 57.3505 39.2178 54.375 42.9453 54.375C43.0716 54.375 43.3261 54.4165 43.7617 54.4687C44.0427 54.5024 44.3276 54.4761 44.5976 54.3915C44.8676 54.307 45.1166 54.1661 45.3282 53.9782C45.5397 53.7902 45.709 53.5596 45.8248 53.3014C45.9406 53.0432 46.0003 52.7634 46 52.4805V44.0781C46 43.5693 45.806 43.0797 45.4577 42.7089C45.1094 42.338 44.6328 42.1139 44.125 42.082C43.8134 42.0624 43.4212 42.0234 42.9453 42.0234C32.4463 42.0234 23.8906 50.5791 23.8906 61.0781C23.8906 71.5772 32.4463 80.1328 42.9453 80.1328C53.4441 80.1328 62 71.5772 62 61.0781V42.9805C64.9093 45.3073 68.5351 46.7812 72.5391 46.7812C73.0852 46.7812 73.6047 46.7489 74.1016 46.7031C74.5982 46.6573 75.0598 46.4276 75.3959 46.059C75.7319 45.6905 75.9181 45.2097 75.918 44.7109V35.3711C75.9183 34.8655 75.7271 34.3785 75.3828 34.0081C75.0386 33.6378 74.5669 33.4116 74.0625 33.375C67.7733 32.9238 62.7597 28.0244 62.1055 21.793C62.0543 21.3012 61.8228 20.8459 61.4556 20.5148C61.0884 20.1837 60.6116 20.0003 60.1172 20H52.086ZM54.0821 24H58.6446C60.0981 30.5974 65.2535 35.6288 71.918 36.8906V42.6211C67.6403 42.4039 63.883 40.2699 61.6719 36.9062C61.4354 36.5463 61.089 36.2723 60.6843 36.125C60.2795 35.9777 59.838 35.9649 59.4255 36.0887C59.0129 36.2125 58.6513 36.4661 58.3945 36.8119C58.1377 37.1577 57.9993 37.5771 58 38.0078V61.0781C58 69.4151 51.2826 76.1328 42.9453 76.1328C34.6084 76.1328 27.8906 69.4151 27.8906 61.0781C27.8906 53.0771 34.1322 46.7264 42 46.2148V50.5664C36.5728 51.0714 32.2422 55.5245 32.2422 61.0781C32.2422 66.9665 37.0569 71.7851 42.9453 71.7851C48.8038 71.7851 54 67.173 54 61.1875C54 61.2853 54.0037 58.6711 54.0117 54.9883C54.0196 51.3054 54.0325 46.4138 54.043 41.5273C54.0618 32.7535 54.0784 25.6984 54.0821 24Z" fill="black"/>
<circle cx="50" cy="50" r="48" stroke="black" stroke-width="4"/>
</svg>
