<svg width="60" height="38" viewBox="0 0 60 38" fill="none" xmlns="http://www.w3.org/2000/svg">
<g clip-path="url(#clip0_41_407)">
<path d="M60 0H0V37.6471H60V0Z" fill="white"/>
<path d="M58.4212 31.373H1.57883V36.0789H58.4212V31.373Z" fill="#F7B600"/>
<path d="M58.4212 1.56836H1.57883V6.27424H58.4212V1.56836ZM24.2153 11.7825L18.2271 25.9013H14.3153L11.3671 14.6354C11.1882 13.9413 11.0318 13.6872 10.4882 13.3942C9.32696 12.8468 8.10292 12.4437 6.84353 12.1942L6.92941 11.7837H13.2106C13.6224 11.7837 14.02 11.9272 14.3341 12.1919C14.6471 12.4554 14.8541 12.8213 14.9188 13.2237L16.4753 21.3942L20.3212 11.7837H24.2153V11.7825ZM39.5294 21.2931C39.5459 17.5554 34.3165 17.3613 34.3518 15.6872C34.3518 15.1813 34.8482 14.6437 35.9188 14.5072C37.1685 14.3879 38.4274 14.6052 39.5647 15.1366L40.2129 12.1413C39.1054 11.7325 37.9347 11.5215 36.7541 11.5178C33.1 11.5178 30.5377 13.4366 30.5059 16.186C30.4835 18.2178 32.3435 19.3495 33.7482 20.0272C35.1541 20.706 35.6729 21.1648 35.6659 21.7813C35.6659 22.7284 34.5165 23.1484 33.4541 23.1637C32.1379 23.1901 30.8364 22.8833 29.6706 22.2719L29 25.366C29.8647 25.759 31.4588 26.0978 33.1106 26.1166C36.9976 26.1166 39.5377 24.2213 39.5482 21.2848L39.5294 21.2931ZM49.2024 25.8954H52.6212L49.6482 11.7766H46.4506C46.114 11.7731 45.7839 11.8697 45.5024 12.0542C45.2219 12.238 45.0034 12.502 44.8753 12.8119L39.3271 25.8919H43.2094L43.9812 23.7837H48.7235L49.2024 25.8943V25.8954ZM45.0753 20.8919L47.0212 15.5907L48.14 20.8919H45.0753ZM29.5177 11.7766L26.4529 25.9025H22.7447L25.8012 11.7848L29.5177 11.7766Z" fill="#1A1F71"/>
</g>
<defs>
<clipPath id="clip0_41_407">
<rect width="60" height="37.6471" fill="white"/>
</clipPath>
</defs>
</svg>
