<svg width="100" height="100" viewBox="0 0 100 100" fill="none" xmlns="http://www.w3.org/2000/svg">
<circle cx="50" cy="50" r="48" fill="#2787F5" stroke="#2787F5" stroke-width="4"/>
<path d="M28.2651 34.7825L19.4931 34.7868C19.4931 34.7868 18.9911 34.7585 18.3849 34.8377C17.7786 34.917 16.8831 34.9537 15.9647 35.9926L15.9605 35.9969L15.9562 36.0011C15.1393 36.9353 15.1705 38.0226 15.2726 38.6208C15.3744 39.2169 15.6021 39.6621 15.6038 39.6653V39.6696C15.6881 39.8765 22.0574 55.4824 30.0866 63.8671C35.7502 69.7853 41.8074 71.7391 47.202 71.7391H50C50.9206 71.7391 51.7428 71.6972 52.6537 71.2253C53.5647 70.7534 54.3479 69.4512 54.3479 68.44C54.3479 67.3505 54.3746 66.2943 54.5134 65.7056C54.6431 65.1558 54.5931 65.2908 54.6451 65.2895C54.6972 65.3008 54.792 65.3228 54.972 65.4041C55.3598 65.5795 55.959 65.9709 56.6237 66.4868C57.9509 67.5172 59.5229 69.012 61.2857 70.1681C63.8106 71.8415 66.5506 71.7391 66.5506 71.7391H75.586L75.6836 71.7306C75.6836 71.7306 77.07 71.699 78.4944 70.8262C79.2066 70.3897 80.053 69.5891 80.3372 68.389C80.6213 67.1889 80.2585 65.9298 79.5602 64.8224C79.305 64.4163 78.0666 62.6214 73.1233 58.2328C71.8462 57.1001 70.9753 56.2984 70.631 55.872C70.5087 55.7207 70.4985 55.7353 70.4739 55.7277C70.5027 55.6533 70.7883 55.0519 71.5523 54.059C72.3487 53.0242 73.5587 51.5824 75.1147 49.6008C77.0978 47.0743 78.4892 44.6449 79.3648 42.595C79.8026 41.5701 80.113 40.64 80.2989 39.797C80.4849 38.9539 80.6333 38.2531 80.3584 37.2537C80.1533 36.5097 79.5965 35.8433 79.0506 35.4916C78.5048 35.1399 77.9959 35.0074 77.5391 34.9226C76.6255 34.7532 75.8195 34.7825 75.068 34.7825C73.4945 34.7825 66.4996 34.8377 65.9222 34.8377C65.2446 34.8377 64.1636 35.1199 63.6634 35.4067C62.4215 36.1179 62.033 37.0923 62.033 37.0923L61.9141 37.3004L61.8462 37.5339C61.8462 37.5339 60.2534 42.6865 58.615 45.3421H58.6108C56.6843 48.4706 55.2472 49.7116 54.6153 50.0636C54.5482 50.101 54.5854 50.0811 54.5389 50.1061C54.4895 49.9621 54.4271 49.7639 54.3861 49.397C54.2937 48.5704 54.3479 47.4064 54.3479 46.2805C54.3479 43.1622 54.582 41.2177 54.3224 39.3766C54.1926 38.4561 53.862 37.4309 53.108 36.6422C52.3541 35.8536 51.3802 35.4654 50.4076 35.2411H50.4034C49.3898 35.0077 48.2976 34.8072 45.6734 34.7825C42.33 34.7514 40.1525 34.855 38.2176 35.7166L38.1964 35.7294L38.1794 35.7379C37.4149 36.097 36.8122 36.5086 36.2814 37.0583C36.0161 37.3332 35.7012 37.5334 35.4832 38.4086C35.3742 38.8461 35.3622 39.674 35.8569 40.3447C36.3515 41.0154 37.0446 41.2176 37.4533 41.2703C37.3779 41.2605 37.7749 41.3479 38.0817 41.4996C38.3886 41.6513 38.655 41.8697 38.7229 41.9581V41.9624C38.6945 41.9255 38.9892 42.6578 39.0668 43.3253C39.1444 43.9928 39.1305 44.5312 39.1305 44.5312L39.1262 44.6628L39.139 44.7944C39.139 44.7944 39.2724 46.2715 39.2026 47.7963C39.1678 48.5587 39.0714 49.326 38.9436 49.7961C38.9369 49.821 38.9338 49.8123 38.9267 49.8343C38.3824 49.4542 37.1273 48.1297 35.3983 45.2742C33.8 42.6328 32.303 37.8821 32.303 37.8821L32.2691 37.7759L32.2308 37.674C32.2308 37.674 31.9517 36.6127 30.7193 35.7464C29.5641 34.9332 28.4647 34.8207 28.4647 34.8207L28.2651 34.7825Z" fill="white"/>
</svg>
