<svg width="100" height="100" viewBox="0 0 100 100" fill="none" xmlns="http://www.w3.org/2000/svg">
<path d="M50 0C22.4115 0 0 22.4115 0 50C0 77.5885 22.4115 100 50 100C77.5885 100 100 77.5885 100 50C100 22.4115 77.5885 0 50 0ZM50 4.34783C75.2387 4.34783 95.6522 24.7613 95.6522 50C95.6522 75.2387 75.2387 95.6522 50 95.6522C24.7613 95.6522 4.34783 75.2387 4.34783 50C4.34783 24.7613 24.7613 4.34783 50 4.34783ZM28.2651 34.7826L19.493 34.7869C19.493 34.7869 18.9911 34.7586 18.3848 34.8378C17.7786 34.917 16.883 34.9538 15.9647 35.9927L15.9604 35.9969L15.9562 36.0012C15.1393 36.9354 15.1705 38.0226 15.2726 38.6209C15.3743 39.217 15.6021 39.6621 15.6038 39.6654V39.6697C15.6881 39.8766 22.0573 55.4825 30.0866 63.8672C35.7502 69.7854 41.8074 71.7391 47.2019 71.7391H50C50.9206 71.7391 51.7427 71.6972 52.6537 71.2254C53.5647 70.7535 54.3478 69.4512 54.3478 68.44C54.3478 67.3505 54.3746 66.2944 54.5134 65.7057C54.6431 65.1559 54.593 65.2908 54.645 65.2896C54.6972 65.3009 54.792 65.3229 54.972 65.4042C55.3598 65.5795 55.959 65.9709 56.6236 66.4869C57.9508 67.5173 59.5228 69.0121 61.2857 70.1681C63.8106 71.8416 66.5506 71.7391 66.5506 71.7391H75.5859L75.6836 71.7306C75.6836 71.7306 77.07 71.6991 78.4944 70.8263C79.2066 70.3898 80.053 69.5892 80.3371 68.3891C80.6213 67.189 80.2585 65.9299 79.5601 64.8225C79.305 64.4164 78.0666 62.6215 73.1233 58.2328C71.8462 57.1002 70.9753 56.2984 70.6309 55.8721C70.5087 55.7208 70.4984 55.7354 70.4738 55.7277C70.5026 55.6534 70.7883 55.052 71.5523 54.0591C72.3486 53.0243 73.5587 51.5825 75.1146 49.6009C77.0978 47.0744 78.4892 44.645 79.3648 42.5951C79.8026 41.5702 80.113 40.6401 80.2989 39.797C80.4849 38.954 80.6333 38.2532 80.3584 37.2537C80.1533 36.5097 79.5965 35.8434 79.0506 35.4917C78.5048 35.1399 77.9959 35.0075 77.5391 34.9227C76.6255 34.7532 75.8194 34.7826 75.0679 34.7826C73.4944 34.7826 66.4996 34.8378 65.9222 34.8378C65.2446 34.8378 64.1636 35.12 63.6634 35.4068C62.4215 36.118 62.0329 37.0924 62.0329 37.0924L61.9141 37.3004L61.8461 37.534C61.8461 37.534 60.2533 42.6866 58.615 45.3422H58.6107C56.6842 48.4707 55.2472 49.7117 54.6153 50.0637C54.5482 50.1011 54.5854 50.0812 54.5389 50.1061C54.4895 49.9622 54.4271 49.764 54.386 49.3971C54.2936 48.5705 54.3478 47.4064 54.3478 46.2806C54.3478 43.1623 54.582 41.2178 54.3223 39.3767C54.1925 38.4562 53.862 37.431 53.108 36.6423C52.354 35.8536 51.3801 35.4654 50.4076 35.2412H50.4034C49.3898 35.0078 48.2975 34.8073 45.6734 34.7826C42.3299 34.7514 40.1524 34.8551 38.2176 35.7167L38.1963 35.7295L38.1793 35.7379C37.4148 36.097 36.8122 36.5087 36.2814 37.0584C36.016 37.3333 35.7012 37.5335 35.4832 38.4086C35.3742 38.8462 35.3622 39.6741 35.8568 40.3448C36.3514 41.0154 37.0446 41.2177 37.4533 41.2704C37.3779 41.2606 37.7748 41.3479 38.0817 41.4997C38.3886 41.6514 38.655 41.8698 38.7228 41.9582V41.9625C38.6945 41.9256 38.9891 42.6579 39.0667 43.3254C39.1444 43.9929 39.1304 44.5312 39.1304 44.5312L39.1262 44.6629L39.1389 44.7945C39.1389 44.7945 39.2724 46.2716 39.2026 47.7964C39.1677 48.5588 39.0714 49.3261 38.9436 49.7962C38.9369 49.8211 38.9338 49.8123 38.9266 49.8344C38.3823 49.4543 37.1273 48.1298 35.3983 45.2743C33.7999 42.6328 32.303 37.8821 32.303 37.8821L32.269 37.776L32.2308 37.6741C32.2308 37.6741 31.9517 36.6128 30.7193 35.7464C29.5641 34.9332 28.4647 34.8208 28.4647 34.8208L28.2651 34.7826ZM27.7598 39.1304C27.8842 39.1759 28.1442 39.2696 28.1929 39.2918L28.142 39.1389C28.142 39.1389 28.2089 39.2926 28.2099 39.296C28.2105 39.2963 28.2182 39.3001 28.2184 39.3003V39.3045H28.2227C28.1134 39.2281 28.206 39.304 28.2184 39.3215C28.2785 39.5263 29.6059 44.0987 31.6788 47.5246C33.5673 50.6434 34.9624 52.3906 36.4852 53.435C38.0065 54.4783 40.0522 54.3708 41.0921 53.8298C42.4817 53.1081 42.8701 51.922 43.1386 50.9341C43.407 49.9462 43.5028 48.9439 43.5462 47.9959C43.629 46.1873 43.4874 44.7077 43.474 44.561C43.4762 44.4793 43.4955 43.7726 43.3848 42.8201C43.2733 41.8604 43.0732 40.6677 42.2215 39.4701C43.1756 39.3283 43.7053 39.1125 45.6309 39.1304C48.0867 39.1535 48.4602 39.256 49.4268 39.4786C49.9532 39.6 50.0116 39.7006 49.9618 39.6484C49.912 39.5963 49.9574 39.5615 50.017 39.9839C50.1362 40.8284 50 42.9945 50 46.2806C50 47.2069 49.9106 48.5131 50.0637 49.8811C50.2167 51.2482 50.644 52.9975 52.297 54.0209C53.2389 54.6038 55.0382 54.8043 56.734 53.8595C58.4299 52.9148 60.1701 51.1025 62.3132 47.6223C64.4301 44.1909 65.6961 39.6795 65.833 39.2026C65.833 39.2026 65.8572 39.1869 65.8713 39.1771C65.9097 39.179 65.8608 39.1856 65.9222 39.1856C66.7275 39.1856 73.598 39.1304 75.0679 39.1304C75.4724 39.1304 75.6499 39.1522 75.9511 39.1644C75.8294 39.6338 75.6657 40.1803 75.3652 40.884C74.6587 42.5379 73.4462 44.6831 71.6924 46.9175C70.181 48.8424 69.0068 50.2386 68.1089 51.4054C67.211 52.5722 66.5056 53.4926 66.2109 54.8234C65.9163 56.1541 66.4785 57.6551 67.2469 58.6065C68.0154 59.5579 68.9664 60.3592 70.2361 61.4852C75.0189 65.7314 75.8036 67.0166 75.8789 67.1366V67.1408C75.9597 67.2689 75.9073 67.1401 75.9383 67.2045C75.6671 67.289 75.3444 67.3846 75.3142 67.3913H66.5166H66.5039C66.5039 67.3913 64.8858 67.3383 63.6846 66.5421L63.6804 66.5379H63.6761C62.4054 65.7056 60.8695 64.2782 59.2901 63.052C58.5004 62.4389 57.6963 61.8644 56.7638 61.4428C55.8312 61.0211 54.6492 60.7222 53.4052 61.0946C51.6047 61.6335 50.6054 63.3471 50.2845 64.7079C50.0541 65.6847 50.0882 66.5342 50.0807 67.3871C50.0187 67.3903 50.0723 67.3913 50 67.3913H47.2019C42.7834 67.3913 38.1867 66.0424 33.2286 60.8611C26.7826 54.1297 21.0314 41.1122 20.1681 39.1347L27.7598 39.1304ZM65.6802 39.1474C65.6407 39.1562 65.7536 39.1647 65.8458 39.1729C65.8333 39.1797 65.8468 39.1669 65.8288 39.1771C65.827 39.1408 65.7332 39.1356 65.6802 39.1474Z" fill="black"/>
<circle cx="50" cy="50" r="48" stroke="black" stroke-width="4"/>
</svg>
