<svg width="100" height="100" viewBox="0 0 100 100" fill="none" xmlns="http://www.w3.org/2000/svg">
<circle cx="50" cy="50" r="48" fill="#FE0000" stroke="#FE0000" stroke-width="4"/>
<path d="M49.7757 25C39.666 25 30.1725 25.7656 25.1176 26.8363C21.7498 27.6019 18.8365 29.8988 18.2263 33.4219C17.6162 37.0945 17 42.6094 17 49.5C17 56.3906 17.6102 61.75 18.3759 65.5781C18.992 68.9457 21.8993 71.3981 25.2672 72.1637C30.6331 73.2344 39.8155 74 49.9252 74C60.0349 74 69.2173 73.2344 74.5772 72.1637C77.9511 71.3981 80.8584 69.1012 81.4686 65.5781C82.0847 61.75 82.8504 56.2411 83 49.3505C83 42.4598 82.2343 36.9449 81.4686 33.1168C80.8584 29.7493 77.9511 27.2969 74.5772 26.5312C69.2173 25.7656 59.8793 25 49.7757 25ZM41.5025 37.25V61.75L62.9422 49.5L41.5025 37.25ZM44.5653 42.4598L56.8165 49.5L44.5653 56.5402V42.4598Z" fill="white"/>
<path d="M64 50L43 62.1244L43 37.8756L64 50Z" fill="#FE0000"/>
</svg>
