<svg width="100" height="100" viewBox="0 0 100 100" fill="none" xmlns="http://www.w3.org/2000/svg">
<path d="M49.7757 25C39.666 25 30.1725 25.7656 25.1176 26.8363C21.7498 27.6019 18.8365 29.8988 18.2263 33.4219C17.6162 37.0945 17 42.6094 17 49.5C17 56.3906 17.6102 61.75 18.3759 65.5781C18.992 68.9457 21.8993 71.3981 25.2672 72.1637C30.6331 73.2344 39.8155 74 49.9252 74C60.0349 74 69.2173 73.2344 74.5772 72.1637C77.9511 71.3981 80.8584 69.1012 81.4686 65.5781C82.0847 61.75 82.8504 56.2411 83 49.3505C83 42.4598 82.2343 36.9449 81.4686 33.1168C80.8584 29.7493 77.9511 27.2969 74.5772 26.5312C69.2173 25.7656 59.8793 25 49.7757 25ZM49.7757 28.0625C60.8006 28.0625 69.6779 28.9777 73.9671 29.7433C76.2642 30.3594 78.1007 31.8906 78.4058 33.8824C79.327 38.7812 79.9372 43.9911 79.9372 49.3505C79.7876 55.9301 79.0219 61.2894 78.4058 65.1176C77.9511 68.0245 74.8883 68.9457 73.9671 69.2567C68.4516 70.3274 59.2632 71.087 50.0748 71.087C40.8863 71.087 31.5483 70.4769 26.1884 69.2567C23.8913 68.6406 22.0548 67.1094 21.7497 65.1176C20.5234 60.8289 20.0628 55.1644 20.0628 49.5C20.0628 42.4539 20.679 37.25 21.2891 34.038C21.7497 31.125 24.9621 30.2039 25.7278 29.8988C30.7826 28.8281 40.1266 28.0625 49.7757 28.0625ZM41.5025 37.25V61.75L62.9422 49.5L41.5025 37.25ZM44.5653 42.4598L56.8165 49.5L44.5653 56.5402V42.4598Z" fill="black"/>
<circle cx="50" cy="50" r="48" stroke="black" stroke-width="4"/>
</svg>
