<svg width="100" height="100" viewBox="0 0 100 100" fill="none" xmlns="http://www.w3.org/2000/svg">
<circle cx="50" cy="50" r="48" fill="black" stroke="white" stroke-width="4"/>
<path d="M53.303 10.0001C53.0745 10.0023 52.8486 10.0496 52.6384 10.1392C52.4281 10.2289 52.2376 10.3591 52.0778 10.5224C51.9179 10.6857 51.7918 10.879 51.7067 11.0911C51.6216 11.3032 51.5792 11.53 51.5819 11.7586C51.733 24.5424 52.4801 33.5445 57.7127 39.5713C62.9453 45.5981 72.1136 47.8757 87.861 48.0478C88.1041 48.0507 88.3452 48.0025 88.5685 47.9064C88.7919 47.8103 88.9926 47.6684 89.1577 47.4899C89.3227 47.3114 89.4485 47.1002 89.5269 46.87C89.6053 46.6398 89.6345 46.3958 89.6127 46.1536C87.8741 27.0061 72.6236 11.7509 53.4761 10.0069C53.4186 10.0017 53.3608 9.99948 53.303 10.0001ZM46.1605 10.0103C46.1163 10.0109 46.0722 10.0131 46.0282 10.0171C26.9347 11.812 11.7401 27.0441 10.007 46.1536C9.98519 46.3958 10.0144 46.6398 10.0928 46.87C10.1712 47.1002 10.2969 47.3114 10.462 47.4899C10.6271 47.6684 10.8278 47.8103 11.0512 47.9064C11.2745 48.0025 11.5156 48.0507 11.7587 48.0478C27.4598 47.8669 36.604 45.5847 41.8187 39.5577C47.0334 33.5307 47.7738 24.5366 47.9258 11.7687C47.9285 11.5365 47.8847 11.306 47.7968 11.091C47.709 10.876 47.579 10.6808 47.4144 10.5168C47.2499 10.3529 47.0541 10.2236 46.8388 10.1366C46.6234 10.0496 46.3928 10.0067 46.1605 10.0103ZM11.7587 51.5715C11.5156 51.5687 11.2745 51.6169 11.0512 51.713C10.8278 51.8091 10.6271 51.951 10.462 52.1295C10.2969 52.308 10.1712 52.5192 10.0928 52.7494C10.0144 52.9796 9.98519 53.2236 10.007 53.4658C11.7419 72.5768 26.9346 87.8092 46.0282 89.6023C46.2706 89.6246 46.515 89.5958 46.7456 89.5177C46.9762 89.4395 47.1878 89.3138 47.3667 89.1487C47.5456 88.9835 47.6878 88.7826 47.7841 88.559C47.8804 88.3354 47.9287 88.0941 47.9258 87.8506C47.7738 75.0828 47.0334 66.0889 41.8187 60.0617C36.604 54.0344 27.4598 51.7516 11.7587 51.5715ZM87.861 51.5715C72.1136 51.7436 62.9451 54.0213 57.7127 60.0481C52.4803 66.0749 51.7339 75.077 51.5819 87.8608C51.579 88.104 51.6272 88.345 51.7233 88.5683C51.8194 88.7917 51.9613 88.9924 52.1399 89.1575C52.3184 89.3226 52.5295 89.4484 52.7597 89.5267C52.9899 89.6051 53.234 89.6343 53.4761 89.6125C72.6219 87.8685 87.8723 72.6166 89.6127 53.4692C89.635 53.2267 89.6062 52.9823 89.528 52.7517C89.4499 52.5211 89.3242 52.3095 89.159 52.1306C88.9939 51.9517 88.793 51.8095 88.5694 51.7132C88.3458 51.6169 88.1045 51.5686 87.861 51.5715Z" fill="white"/>
</svg>
